<svg width="33" height="29" viewBox="0 0 33 29" fill="none" xmlns="http://www.w3.org/2000/svg">
<path d="M0.484375 27.7969C0.484375 28.4364 1.05693 28.9531 1.76562 28.9531H31.2344C31.9431 28.9531 32.5156 28.4364 32.5156 27.7969V12.6211H0.484375V27.7969ZM31.2344 2.64844H24.5078V0.335938C24.5078 0.176953 24.3637 0.046875 24.1875 0.046875H21.9453C21.7691 0.046875 21.625 0.176953 21.625 0.335938V2.64844H11.375V0.335938C11.375 0.176953 11.2309 0.046875 11.0547 0.046875H8.8125C8.63633 0.046875 8.49219 0.176953 8.49219 0.335938V2.64844H1.76562C1.05693 2.64844 0.484375 3.16514 0.484375 3.80469V10.1641H32.5156V3.80469C32.5156 3.16514 31.9431 2.64844 31.2344 2.64844Z" fill="#9D9D9D"/>
</svg>
