<svg width="37" height="31" viewBox="0 0 37 31" fill="none" xmlns="http://www.w3.org/2000/svg">
<path d="M9.95834 7.79167V1.625H8.25001M1.41667 27.8333C1.80475 28.3213 2.31862 28.7166 2.9139 28.9852C3.50917 29.2538 4.16795 29.3876 4.83334 29.375C5.49873 29.3876 6.15751 29.2538 6.75278 28.9852C7.34805 28.7166 7.86192 28.3213 8.25001 27.8333C8.63809 27.3454 9.15196 26.9501 9.74723 26.6815C10.3425 26.4129 11.0013 26.2791 11.6667 26.2917C12.3321 26.2791 12.9908 26.4129 13.5861 26.6815C14.1814 26.9501 14.6953 27.3454 15.0833 27.8333C15.4714 28.3213 15.9853 28.7166 16.5806 28.9852C17.1758 29.2538 17.8346 29.3876 18.5 29.375C19.1654 29.3876 19.8242 29.2538 20.4194 28.9852C21.0147 28.7166 21.5286 28.3213 21.9167 27.8333C22.3048 27.3454 22.8186 26.9501 23.4139 26.6815C24.0092 26.4129 24.6679 26.2791 25.3333 26.2917C25.9987 26.2791 26.6575 26.4129 27.2528 26.6815C27.8481 26.9501 28.3619 27.3454 28.75 27.8333C29.1381 28.3213 29.652 28.7166 30.2472 28.9852C30.8425 29.2538 31.5013 29.3876 32.1667 29.375C32.8321 29.3876 33.4908 29.2538 34.0861 28.9852C34.6814 28.7166 35.1953 28.3213 35.5833 27.8333H1.41667ZM4.83334 24.75L3.12501 17.0417H33.875L30.4583 23.2083L4.83334 24.75ZM6.54167 17.0417V7.79167H20.2083L27.0417 17.0417H6.54167Z" stroke="#9D9D9D" stroke-width="2" stroke-linecap="round" stroke-linejoin="round"/>
</svg>
