<svg width="29" height="31" viewBox="0 0 29 31" fill="none" xmlns="http://www.w3.org/2000/svg">
<path d="M6.96624 5.34042C5.63374 4.13792 5.63374 2.18 6.96624 0.977501C8.29874 -0.224999 10.4683 -0.224999 11.8008 0.977501C13.1333 2.18 13.1333 4.13792 11.8008 5.34042C10.4512 6.55834 8.29874 6.55834 6.96624 5.34042ZM4.24999 26.2917V7.79167H0.833328V29.375H19.625V26.2917H4.24999ZM28.1667 27.9413L19.5054 20.125H13.6458V14.4517C16.0375 16.2246 19.7958 17.7817 23.0417 17.7817V14.4517C20.2058 14.4825 16.8746 13.1104 15.0637 11.3067L12.6721 8.91709C12.3475 8.59334 11.9375 8.33125 11.4933 8.14625C10.9979 7.93042 10.4342 7.79167 9.85333 7.79167H9.80208C7.68374 7.79167 5.95833 9.34875 5.95833 11.2604V24.75H19.7446L25.7237 30.1458L28.1667 27.9413Z" fill="#9D9D9D"/>
</svg>
