<svg width="106" height="30" viewBox="0 0 106 30" fill="none" xmlns="http://www.w3.org/2000/svg">
<path d="M5.5332 1.67188V23H0.757812V1.67188H5.5332ZM18.2773 1.67188L9.92773 12.3359L5.06445 17.6094L4.2002 13.1709L7.4082 8.57129L12.418 1.67188H18.2773ZM12.7402 23L6.85156 13.2588L10.4844 10.4316L18.3945 23H12.7402ZM28.0479 19.2207V12.4238C28.0479 11.9453 27.9746 11.5352 27.8281 11.1934C27.6816 10.8516 27.4521 10.583 27.1396 10.3877C26.8271 10.1924 26.4219 10.0947 25.9238 10.0947C25.5039 10.0947 25.1377 10.168 24.8252 10.3145C24.5225 10.4609 24.2881 10.6709 24.1221 10.9443C23.9658 11.2178 23.8877 11.5547 23.8877 11.9551H19.3174C19.3174 11.2422 19.4785 10.5781 19.8008 9.96289C20.123 9.34766 20.582 8.80566 21.1777 8.33691C21.7832 7.86816 22.5059 7.50684 23.3457 7.25293C24.1855 6.98926 25.1279 6.85742 26.1729 6.85742C27.4131 6.85742 28.5166 7.06738 29.4834 7.4873C30.46 7.89746 31.2314 8.51758 31.7979 9.34766C32.3643 10.168 32.6475 11.2031 32.6475 12.4531V19.0889C32.6475 20.0459 32.7012 20.7979 32.8086 21.3447C32.9258 21.8818 33.0918 22.3506 33.3066 22.751V23H28.6924C28.4775 22.541 28.3164 21.9746 28.209 21.3008C28.1016 20.6172 28.0479 19.9238 28.0479 19.2207ZM28.6191 13.332L28.6484 15.8516H26.3779C25.8701 15.8516 25.4307 15.915 25.0596 16.042C24.6982 16.1689 24.4053 16.3447 24.1807 16.5693C23.9561 16.7842 23.79 17.0381 23.6826 17.3311C23.585 17.6143 23.5361 17.9268 23.5361 18.2686C23.5361 18.5908 23.6143 18.8838 23.7705 19.1475C23.9268 19.4014 24.1416 19.6016 24.415 19.748C24.6885 19.8945 25.0059 19.9678 25.3672 19.9678C25.9629 19.9678 26.4707 19.8506 26.8906 19.6162C27.3203 19.3818 27.6523 19.0986 27.8867 18.7666C28.1211 18.4248 28.2383 18.1074 28.2383 17.8145L29.3369 19.7188C29.1611 20.1094 28.9463 20.5146 28.6924 20.9346C28.4385 21.3447 28.1162 21.7305 27.7256 22.0918C27.335 22.4434 26.8613 22.7314 26.3047 22.9561C25.7578 23.1807 25.0986 23.293 24.3271 23.293C23.3311 23.293 22.4277 23.0928 21.6172 22.6924C20.8066 22.2822 20.1572 21.7207 19.6689 21.0078C19.1904 20.2949 18.9512 19.4746 18.9512 18.5469C18.9512 17.7168 19.1025 16.9795 19.4053 16.335C19.708 15.6904 20.1621 15.1436 20.7676 14.6943C21.3828 14.2451 22.1543 13.9082 23.082 13.6836C24.0098 13.4492 25.0938 13.332 26.334 13.332H28.6191ZM40.2354 10.1973V29.0938H35.665V7.15039H39.9277L40.2354 10.1973ZM50.123 14.8994V15.207C50.123 16.3594 49.9912 17.4287 49.7275 18.415C49.4639 19.3916 49.0684 20.2461 48.541 20.9785C48.0234 21.7109 47.3838 22.2822 46.6221 22.6924C45.8604 23.0928 44.9766 23.293 43.9707 23.293C43.0137 23.293 42.1836 23.0928 41.4805 22.6924C40.7871 22.2822 40.2012 21.7158 39.7227 20.9932C39.2539 20.2607 38.873 19.4258 38.5801 18.4883C38.2969 17.541 38.0771 16.5303 37.9209 15.4561V14.8555C38.0771 13.7129 38.3018 12.6533 38.5947 11.6768C38.8877 10.7002 39.2686 9.85547 39.7373 9.14258C40.2061 8.41992 40.7871 7.8584 41.4805 7.45801C42.1738 7.05762 42.999 6.85742 43.9561 6.85742C44.9521 6.85742 45.8359 7.04785 46.6074 7.42871C47.3789 7.80957 48.0234 8.35645 48.541 9.06934C49.0684 9.77246 49.4639 10.6172 49.7275 11.6035C49.9912 12.5898 50.123 13.6885 50.123 14.8994ZM45.5381 15.207V14.8994C45.5381 14.2549 45.4893 13.6641 45.3916 13.127C45.2939 12.5801 45.1377 12.1064 44.9229 11.7061C44.708 11.2959 44.4248 10.9785 44.0732 10.7539C43.7217 10.5293 43.292 10.417 42.7842 10.417C42.2373 10.417 41.7734 10.5049 41.3926 10.6807C41.0117 10.8564 40.7041 11.1152 40.4697 11.457C40.2354 11.7891 40.0645 12.1992 39.957 12.6875C39.8594 13.1758 39.8057 13.7324 39.7959 14.3574V15.9688C39.8057 16.7012 39.9082 17.3555 40.1035 17.9316C40.3086 18.498 40.626 18.9424 41.0557 19.2646C41.4951 19.5771 42.0811 19.7334 42.8135 19.7334C43.3311 19.7334 43.7607 19.6211 44.1025 19.3965C44.4541 19.1621 44.7324 18.835 44.9375 18.415C45.1523 17.9951 45.3037 17.5117 45.3916 16.9648C45.4893 16.418 45.5381 15.832 45.5381 15.207ZM60.9482 19.2207V12.4238C60.9482 11.9453 60.875 11.5352 60.7285 11.1934C60.582 10.8516 60.3525 10.583 60.04 10.3877C59.7275 10.1924 59.3223 10.0947 58.8242 10.0947C58.4043 10.0947 58.0381 10.168 57.7256 10.3145C57.4229 10.4609 57.1885 10.6709 57.0225 10.9443C56.8662 11.2178 56.7881 11.5547 56.7881 11.9551H52.2178C52.2178 11.2422 52.3789 10.5781 52.7012 9.96289C53.0234 9.34766 53.4824 8.80566 54.0781 8.33691C54.6836 7.86816 55.4062 7.50684 56.2461 7.25293C57.0859 6.98926 58.0283 6.85742 59.0732 6.85742C60.3135 6.85742 61.417 7.06738 62.3838 7.4873C63.3604 7.89746 64.1318 8.51758 64.6982 9.34766C65.2646 10.168 65.5479 11.2031 65.5479 12.4531V19.0889C65.5479 20.0459 65.6016 20.7979 65.709 21.3447C65.8262 21.8818 65.9922 22.3506 66.207 22.751V23H61.5928C61.3779 22.541 61.2168 21.9746 61.1094 21.3008C61.002 20.6172 60.9482 19.9238 60.9482 19.2207ZM61.5195 13.332L61.5488 15.8516H59.2783C58.7705 15.8516 58.3311 15.915 57.96 16.042C57.5986 16.1689 57.3057 16.3447 57.0811 16.5693C56.8564 16.7842 56.6904 17.0381 56.583 17.3311C56.4854 17.6143 56.4365 17.9268 56.4365 18.2686C56.4365 18.5908 56.5146 18.8838 56.6709 19.1475C56.8271 19.4014 57.042 19.6016 57.3154 19.748C57.5889 19.8945 57.9062 19.9678 58.2676 19.9678C58.8633 19.9678 59.3711 19.8506 59.791 19.6162C60.2207 19.3818 60.5527 19.0986 60.7871 18.7666C61.0215 18.4248 61.1387 18.1074 61.1387 17.8145L62.2373 19.7188C62.0615 20.1094 61.8467 20.5146 61.5928 20.9346C61.3389 21.3447 61.0166 21.7305 60.626 22.0918C60.2354 22.4434 59.7617 22.7314 59.2051 22.9561C58.6582 23.1807 57.999 23.293 57.2275 23.293C56.2314 23.293 55.3281 23.0928 54.5176 22.6924C53.707 22.2822 53.0576 21.7207 52.5693 21.0078C52.0908 20.2949 51.8516 19.4746 51.8516 18.5469C51.8516 17.7168 52.0029 16.9795 52.3057 16.335C52.6084 15.6904 53.0625 15.1436 53.668 14.6943C54.2832 14.2451 55.0547 13.9082 55.9824 13.6836C56.9102 13.4492 57.9941 13.332 59.2344 13.332H61.5195ZM73.3701 0.5V23H68.7852V0.5H73.3701ZM89.4834 19.4404V23H77.3252V19.4404H89.4834ZM89.293 9.69922L79.2881 23H76.1826V20.3633L86.1582 7.15039H89.293V9.69922ZM87.7256 7.15039V10.71H76.4463V7.15039H87.7256ZM96.8223 21.1689L100.968 7.15039H105.89L99.5176 25.373C99.3809 25.7734 99.1953 26.2031 98.9609 26.6621C98.7363 27.1211 98.4287 27.5605 98.0381 27.9805C97.6572 28.4004 97.1689 28.7422 96.5732 29.0059C95.9775 29.2695 95.2451 29.4014 94.376 29.4014C93.9365 29.4014 93.5947 29.377 93.3506 29.3281C93.1162 29.2891 92.8037 29.2207 92.4131 29.123L92.3984 25.7979C92.5254 25.7979 92.6377 25.7979 92.7354 25.7979C92.8428 25.8076 92.9502 25.8125 93.0576 25.8125C93.6045 25.8125 94.0439 25.7539 94.376 25.6367C94.7178 25.5195 94.9814 25.3438 95.167 25.1094C95.3623 24.8848 95.5186 24.5967 95.6357 24.2451L96.8223 21.1689ZM95.4307 7.15039L98.7119 18.4297L99.2686 23.2783L96.1777 23.4395L90.5088 7.15039H95.4307Z" fill="#00579C"/>
</svg>
