<svg width="37" height="33" viewBox="0 0 37 33" fill="none" xmlns="http://www.w3.org/2000/svg">
<path d="M18.5 0.3125C8.59434 0.3125 0.5625 7.56074 0.5625 16.5C0.5625 25.4393 8.59434 32.6875 18.5 32.6875C28.4057 32.6875 36.4375 25.4393 36.4375 16.5C36.4375 7.56074 28.4057 0.3125 18.5 0.3125ZM25.5669 21.4755L24.4218 22.8847C24.3969 22.9154 24.3655 22.9413 24.3294 22.961C24.2934 22.9807 24.2534 22.9938 24.2117 22.9995C24.17 23.0052 24.1275 23.0034 24.0866 22.9943C24.0457 22.9851 24.0072 22.9687 23.9733 22.9461L17.3509 18.5885C17.3096 18.5617 17.2761 18.5264 17.2531 18.4856C17.2301 18.4447 17.2183 18.3994 17.2188 18.3536V8.40625C17.2188 8.24727 17.3629 8.11719 17.5391 8.11719H19.4649C19.6411 8.11719 19.7853 8.24727 19.7853 8.40625V17.3491L25.4948 21.0744C25.639 21.1647 25.671 21.3454 25.5669 21.4755Z" fill="#9D9D9D"/>
</svg>
